<svg width="32" height="32" viewBox="0 0 32 32" fill="none" xmlns="http://www.w3.org/2000/svg">
<rect width="32" height="32" fill="#D9D9D9"/>
<rect width="1600" height="1600" transform="translate(-40 -40)" fill="#0C2B35"/>
<rect x="-19.5" y="-19.5" width="239" height="123" rx="4.5" stroke="#9747FF" stroke-dasharray="10 5"/>
<mask id="mask0_36_305" style="mask-type:alpha" maskUnits="userSpaceOnUse" x="3" y="6" width="26" height="23">
<path d="M23.1111 13.4C23.1111 17.266 19.9274 20.4 16 20.4C12.0726 20.4 8.88889 17.266 8.88889 13.4C8.88889 9.53401 12.0726 6.4 16 6.4C19.9274 6.4 23.1111 9.53401 23.1111 13.4Z" fill="white"/>
<path d="M8.88889 21.8C5.747 21.8 3.2 24.3072 3.2 27.4V28.8H28.8V27.4C28.8 24.3072 26.253 21.8 23.1111 21.8H8.88889Z" fill="white"/>
</mask>
<g mask="url(#mask0_36_305)">
<circle cx="16" cy="16" r="16" fill="white"/>
</g>
<circle cx="16" cy="16" r="14" stroke="white" stroke-width="4"/>
</svg>
